<svg width="32" height="33" viewBox="0 0 32 33" fill="none" xmlns="http://www.w3.org/2000/svg">
<path d="M31.4375 16.5C31.4375 25.2499 24.5255 32.3438 16 32.3438C7.47449 32.3438 0.5625 25.2499 0.5625 16.5C0.5625 7.75014 7.47449 0.65625 16 0.65625C24.5255 0.65625 31.4375 7.75014 31.4375 16.5ZM15.6549 9.54094C15.5441 9.65366 15.4561 9.78767 15.3959 9.93531C15.3356 10.083 15.3043 10.2413 15.3036 10.4014C15.303 10.5615 15.3331 10.7201 15.3922 10.8682C15.4514 11.0164 15.5383 11.1511 15.6482 11.2647L19.5313 15.2812H9.61719C9.30224 15.2812 9.0002 15.4097 8.7775 15.6382C8.5548 15.8668 8.42969 16.1768 8.42969 16.5C8.42969 16.8232 8.5548 17.1332 8.7775 17.3618C9.0002 17.5903 9.30224 17.7188 9.61719 17.7188H19.5313L15.6482 21.7353C15.5384 21.849 15.4514 21.9839 15.3923 22.1321C15.3333 22.2803 15.3032 22.439 15.3039 22.5991C15.3046 22.7593 15.336 22.9177 15.3964 23.0654C15.4567 23.2131 15.5448 23.3471 15.6556 23.4598C15.7664 23.5726 15.8978 23.6618 16.0422 23.7224C16.1866 23.783 16.3413 23.8139 16.4973 23.8132C16.6533 23.8125 16.8077 23.7802 16.9516 23.7183C17.0955 23.6564 17.2261 23.5659 17.3359 23.4522L23.2282 17.3585C23.4489 17.1302 23.5727 16.8216 23.5727 16.5C23.5727 16.1784 23.4489 15.8698 23.2282 15.6415L17.3359 9.54779C17.2261 9.43391 17.0954 9.34339 16.9514 9.2814C16.8074 9.21941 16.6529 9.18717 16.4968 9.18654C16.3407 9.1859 16.1859 9.21687 16.0415 9.27769C15.897 9.3385 15.7656 9.42796 15.6549 9.54094Z" fill="#6A6A6A"/>
</svg>
