<svg width="32" height="33" viewBox="0 0 32 33" fill="none" xmlns="http://www.w3.org/2000/svg">
<path d="M0.5625 16.5C0.5625 25.2499 7.47449 32.3438 16 32.3438C24.5255 32.3438 31.4375 25.2499 31.4375 16.5C31.4375 7.75014 24.5255 0.65625 16 0.65625C7.47449 0.65625 0.5625 7.75014 0.5625 16.5ZM16.3451 9.54094C16.4559 9.65366 16.5439 9.78767 16.6041 9.93531C16.6644 10.083 16.6957 10.2413 16.6964 10.4014C16.697 10.5615 16.6669 10.7201 16.6078 10.8682C16.5486 11.0164 16.4617 11.1511 16.3518 11.2647L12.4687 15.2812H22.3828C22.6978 15.2812 22.9998 15.4097 23.2225 15.6382C23.4452 15.8668 23.5703 16.1768 23.5703 16.5C23.5703 16.8232 23.4452 17.1332 23.2225 17.3618C22.9998 17.5903 22.6978 17.7188 22.3828 17.7188H12.4687L16.3518 21.7353C16.4616 21.849 16.5486 21.9839 16.6077 22.1321C16.6667 22.2803 16.6968 22.439 16.6961 22.5991C16.6954 22.7593 16.664 22.9177 16.6036 23.0654C16.5433 23.2131 16.4552 23.3471 16.3444 23.4598C16.2336 23.5726 16.1022 23.6618 15.9578 23.7224C15.8134 23.783 15.6587 23.8139 15.5027 23.8132C15.3467 23.8125 15.1923 23.7802 15.0484 23.7183C14.9045 23.6564 14.7739 23.5659 14.6641 23.4522L8.77184 17.3585C8.55111 17.1302 8.42726 16.8216 8.42726 16.5C8.42726 16.1784 8.55111 15.8698 8.77184 15.6415L14.6641 9.54779C14.7739 9.43391 14.9046 9.34339 15.0486 9.2814C15.1926 9.21941 15.3471 9.18717 15.5032 9.18654C15.6593 9.1859 15.8141 9.21687 15.9585 9.27769C16.103 9.3385 16.2344 9.42796 16.3451 9.54094Z" fill="#6A6A6A"/>
</svg>
